<svg width="354" height="751" viewBox="0 0 354 751" fill="none" xmlns="http://www.w3.org/2000/svg">
    <path
        d="M205.687 345.875L147.75 336.375C147.75 336.375 144.937 579.812 147.375 608.688C147.375 608.75 162.312 696.688 166 740.375C166.437 745.812 171 750.062 176.5 750.062C182 750.062 186.562 745.875 187.062 740.375L205.75 608.688C205.625 569 205.687 345.875 205.687 345.875Z"
        fill="#82AEC0" />
    <path
        d="M205.437 348.562C205.437 348.562 205.687 385.437 205.687 394.625C205.687 403.812 197.5 418.563 176.312 418.563C155.125 418.563 147.312 404.125 147.312 395.25C147.312 386.375 147.375 348.688 147.375 348.688L205.437 348.562Z"
        fill="#2F7889" />
    <path
        d="M0 177.25V186.125C5.3125 273.875 74.4375 345.625 162.187 353.562C167.5 354.437 171.938 354.437 177.25 354.437C182.563 354.437 187 354.437 191.437 353.562C279.188 345.562 348.25 275.563 353.563 186.063V177.187C354.438 79.75 274.688 0 177.188 0C79.6875 0 0 78.875 0 177.25Z"
        fill="#3B82F6" />
    <path
        d="M195.312 29.8123C211.937 46.1873 207.625 65.1873 198.562 81.6248C188.375 100.125 164.687 109.437 129.75 159.812C103.562 197.562 47.9999 180.312 40.1874 150.375C34.1874 127.375 38.9999 103.312 51.4374 83.4373C98.6249 7.9373 178.687 13.4373 195.312 29.8123Z"
        fill="#6EA4FE" />
</svg>