<svg width="846" height="857" viewBox="0 0 846 857" fill="none" xmlns="http://www.w3.org/2000/svg">
	<path opacity="0.7"
		d="M124.334 789.23C289.338 878.728 556.862 878.732 721.862 789.232C886.866 699.73 886.866 554.624 721.862 465.124C556.858 375.624 289.334 375.624 124.332 465.122C-40.6721 554.622 -40.6721 699.732 124.334 789.23Z"
		fill="#F0F0F0" />
	<path
		d="M306.434 572.542C261.892 593.774 189.678 593.774 145.138 572.542C100.596 551.316 100.596 516.896 145.138 495.664C189.68 474.438 261.892 474.438 306.434 495.664C350.976 516.896 350.976 551.318 306.434 572.542Z"
		fill="#E0E0E0" />
	<path
		d="M82.4459 530.566L95.2659 523.242C95.2659 523.242 101.414 489.358 96.8158 460.232C90.3518 419.282 62.4679 405.156 52.3419 409.226C42.2159 413.296 39.8358 425.428 58.1238 449.09C68.9118 463.05 82.7919 492.56 82.4459 530.566Z"
		fill="#3B82F6" />
	<g opacity="0.1">
		<path
			d="M82.4459 530.566L95.2659 523.242C95.2659 523.242 101.414 489.358 96.8158 460.232C90.3518 419.282 62.4679 405.156 52.3419 409.226C42.2159 413.296 39.8358 425.428 58.1238 449.09C68.9118 463.05 82.7919 492.56 82.4459 530.566Z"
			fill="black" />
	</g>
	<path
		d="M87.092 514.302C87.05 514.302 87.0081 514.298 86.9661 514.294C86.4661 514.224 86.1161 513.764 86.1861 513.264C91.4841 474.926 76.0661 432.922 58.7441 415.994C58.3841 415.642 58.376 415.062 58.73 414.702C59.084 414.346 59.6621 414.334 60.0221 414.688C77.6601 431.924 93.3741 474.612 87.9961 513.514C87.9321 513.97 87.54 514.302 87.092 514.302Z"
		fill="white" />
	<path
		d="M46.878 551.112C44.852 552.274 40.678 549.732 39.078 548.66C36.34 546.824 34.122 544.222 32.65 541.28C30.936 537.856 30.504 534.188 31.04 530.4C31.318 528.436 31.868 526.522 32.416 524.614C32.954 522.742 33.492 520.87 34.03 518.998C34.56 517.152 35.098 515.24 34.854 513.334C34.362 509.494 30.954 506.802 27.854 504.482C24.426 501.916 20.858 498.528 20.878 493.904C20.894 490.336 22.74 487.024 24.952 484.224C27.162 481.424 29.786 478.95 31.784 475.994C33.222 473.866 34.344 471.368 34.112 468.81C33.966 467.222 33.308 465.724 32.548 464.322C30.916 461.312 28.762 458.554 27.636 455.32C26.51 452.086 26.67 448.064 29.194 445.75C31.266 443.85 34.346 443.584 37.15 443.77C39.744 443.942 42.28 445.112 44.55 446.374C51.89 450.456 56.08 459.15 63.87 462.29C66.874 463.502 70.166 463.766 73.298 464.594C76.43 465.422 79.622 467.022 81.074 469.918C83.934 475.628 78.626 482.668 80.638 488.73C82.416 494.094 87.63 496.148 90.558 500.982C91.838 503.096 92.134 505.542 91.928 508.006C91.578 512.176 90.968 515.236 88.966 519.874C87.312 523.706 82.452 530.564 82.452 530.564C82.324 530.686 47.188 550.934 46.878 551.112Z"
		fill="#3B82F6" />
	<path
		d="M67.6881 540.025C67.6761 540.025 67.6621 540.025 67.6621 540.025C67.1441 540.003 66.7541 539.577 66.7741 539.073C68.2841 502.785 51.1861 462.725 38.7541 451.085C38.3861 450.741 38.3661 450.163 38.7121 449.793C39.0581 449.425 39.6341 449.407 40.0041 449.751C52.6861 461.623 70.1341 502.351 68.6021 539.149C68.5801 539.641 68.1761 540.025 67.6881 540.025Z"
		fill="white" />
	<path
		d="M62.2498 497.153C62.1598 497.153 62.0698 497.141 61.9798 497.111C50.3218 493.507 35.7898 492.871 35.6458 492.867C35.1398 492.845 34.7498 492.419 34.7698 491.915C34.7918 491.411 35.1738 491.013 35.7218 491.039C35.8698 491.047 50.6318 491.691 62.5198 495.367C63.0018 495.515 63.2738 496.027 63.1238 496.509C63.0018 496.901 62.6418 497.153 62.2498 497.153Z"
		fill="white" />
	<path
		d="M708.55 715.212C715.434 700.22 740.538 674.142 765.034 661.818C789.532 649.494 820.528 646.492 835.176 660.414C848.818 673.38 837.316 693.808 811.22 698.86C785.124 703.914 747.494 708.034 727.694 728.39L695.876 749.91L708.55 715.212Z"
		fill="#3B82F6" />
	<path opacity="0.1"
		d="M708.55 715.212C715.434 700.22 740.538 674.142 765.034 661.818C789.532 649.494 820.528 646.492 835.176 660.414C848.818 673.38 837.316 693.808 811.22 698.86C785.124 703.914 747.494 708.034 727.694 728.39L695.876 749.91L708.55 715.212Z"
		fill="black" />
	<path
		d="M698.024 735.22C698.52 735.402 699.094 735.238 699.416 734.792C732.956 688.222 793.46 665.632 822.462 667.818C823.126 667.868 823.704 667.37 823.754 666.706C823.806 666.046 823.324 665.46 822.642 665.414C793.088 663.184 731.506 686.106 697.46 733.382C697.07 733.922 697.194 734.674 697.732 735.062C697.824 735.132 697.922 735.182 698.024 735.22Z"
		fill="white" />
	<path
		d="M690.614 771.484C696.892 764.162 713.572 754.98 735.496 751.138C759.75 746.886 785.742 751.744 795.658 744.32C807.568 735.402 802.708 719.576 782.71 713.234C762.714 706.892 717.596 717.434 694.432 753.856L690.614 771.484Z"
		fill="#3B82F6" />
	<path
		d="M691.014 760.96C691.446 761.118 691.946 761.02 692.29 760.67C728.118 724.03 768.636 724.002 785.054 729.104C785.688 729.302 786.364 728.946 786.564 728.31C786.762 727.672 786.432 727.008 785.77 726.802C767.614 721.158 727.134 721.586 690.564 758.984C690.1 759.458 690.108 760.224 690.584 760.69C690.712 760.812 690.858 760.904 691.014 760.96Z"
		fill="white" />
	<path
		d="M327.488 583.452L350.958 597.002L343.136 601.52H374.428V583.452L366.604 587.97L343.136 574.418L327.488 583.452Z"
		fill="#3B82F6" />
	<path
		d="M388.088 611.332C387.76 611.332 387.43 611.25 387.128 611.074L381.29 607.704C380.368 607.172 380.052 605.994 380.584 605.072C381.116 604.15 382.296 603.834 383.216 604.366L389.054 607.736C389.976 608.268 390.292 609.446 389.76 610.368C389.4 610.986 388.752 611.332 388.088 611.332Z"
		fill="#3B82F6" />
	<path
		d="M634.144 753.395C633.816 753.395 633.486 753.313 633.184 753.137L621.926 746.637C621.004 746.105 620.688 744.927 621.22 744.005C621.752 743.083 622.932 742.765 623.852 743.299L635.11 749.799C636.032 750.331 636.348 751.509 635.816 752.431C635.458 753.051 634.81 753.395 634.144 753.395ZM606.806 737.609C606.478 737.609 606.148 737.527 605.844 737.351L594.586 730.853C593.664 730.321 593.348 729.143 593.88 728.221C594.412 727.299 595.59 726.981 596.512 727.515L607.77 734.013C608.692 734.545 609.008 735.723 608.476 736.645C608.118 737.263 607.472 737.609 606.806 737.609ZM579.466 721.825C579.138 721.825 578.808 721.743 578.506 721.567L567.248 715.067C566.326 714.535 566.01 713.357 566.542 712.435C567.074 711.513 568.254 711.199 569.174 711.729L580.432 718.229C581.354 718.761 581.67 719.939 581.138 720.861C580.778 721.479 580.132 721.825 579.466 721.825ZM552.124 706.039C551.796 706.039 551.466 705.957 551.164 705.781L539.908 699.283C538.986 698.751 538.67 697.573 539.202 696.651C539.734 695.731 540.912 695.415 541.834 695.945L553.09 702.443C554.012 702.975 554.328 704.153 553.796 705.075C553.438 705.693 552.79 706.039 552.124 706.039ZM524.786 690.255C524.458 690.255 524.128 690.173 523.824 689.997L512.568 683.497C511.646 682.965 511.33 681.788 511.862 680.866C512.394 679.942 513.574 679.627 514.494 680.159L525.75 686.659C526.672 687.191 526.988 688.369 526.456 689.291C526.098 689.911 525.452 690.255 524.786 690.255ZM497.446 674.471C497.118 674.471 496.788 674.389 496.486 674.213L485.23 667.715C484.308 667.183 483.992 666.005 484.524 665.083C485.056 664.161 486.236 663.845 487.156 664.377L498.412 670.875C499.334 671.407 499.65 672.585 499.118 673.507C498.758 674.125 498.112 674.471 497.446 674.471ZM470.106 658.687C469.778 658.687 469.448 658.605 469.146 658.429L457.888 651.929C456.966 651.397 456.65 650.219 457.182 649.297C457.712 648.375 458.894 648.059 459.814 648.591L471.072 655.091C471.994 655.623 472.31 656.801 471.778 657.723C471.42 658.341 470.772 658.687 470.106 658.687ZM442.768 642.901C442.44 642.901 442.11 642.819 441.806 642.643L430.548 636.145C429.626 635.613 429.31 634.435 429.842 633.513C430.374 632.593 431.552 632.275 432.474 632.807L443.732 639.306C444.654 639.838 444.97 641.015 444.438 641.937C444.08 642.555 443.434 642.901 442.768 642.901ZM415.426 627.117C415.098 627.117 414.768 627.035 414.464 626.859L403.208 620.359C402.286 619.827 401.97 618.65 402.502 617.728C403.034 616.804 404.214 616.489 405.134 617.021L416.39 623.521C417.312 624.053 417.628 625.231 417.096 626.153C416.74 626.773 416.092 627.117 415.426 627.117Z"
		fill="#3B82F6" />
	<path
		d="M656.064 766.05C655.736 766.05 655.406 765.968 655.104 765.792L649.268 762.422C648.346 761.89 648.03 760.712 648.562 759.79C649.094 758.866 650.274 758.554 651.194 759.084L657.03 762.454C657.952 762.986 658.268 764.164 657.736 765.086C657.376 765.706 656.73 766.05 656.064 766.05Z"
		fill="#3B82F6" />
	<path
		d="M783.59 261.648C783.59 261.628 783.57 261.628 783.57 261.628C783.012 261.3 782.356 260.896 781.78 260.568L725.908 228.482C713.37 220.084 698.636 215.694 682.266 215.694C662.718 215.694 642.996 222.782 619.788 235.628C538.648 280.58 469.314 410.214 469.314 495.34V518.894C469.314 622.066 604.994 747.968 604.994 747.968L661.252 780.474C661.33 780.57 661.406 780.57 661.502 780.57C659.614 778.356 721.284 688.394 779.428 512.922C843.796 318.696 784.804 262.766 783.59 261.648ZM688.642 570.088C642.708 596.628 604.19 582.722 593.288 539.908C572.218 536.942 556.984 520.802 552.304 494.206C546.392 408.29 592.036 339.822 657.402 312.05C685.348 301.88 708.766 309.142 721.286 330.174C759.69 323.588 787.154 349.896 787.154 399.47C787.154 462.254 743.068 538.694 688.642 570.088Z"
		fill="#455A64" />
	<path
		d="M787.154 399.468C787.154 462.254 743.07 538.694 688.642 570.086C642.708 596.626 604.19 582.72 593.288 539.906C607.096 541.89 623.428 538.192 640.954 528.062C690.798 499.328 731.166 429.358 731.166 371.868C731.166 354.804 727.602 340.744 721.286 330.172C759.69 323.586 787.154 349.896 787.154 399.468Z"
		fill="#263238" />
	<path
		d="M783.59 261.648C783.59 261.628 783.57 261.628 783.57 261.628C783.012 261.3 782.356 260.896 781.78 260.568C754.662 245.334 718.416 247.376 678.608 270.332C618.576 305.038 566.614 377.916 542.02 454.394C532.256 484.688 528.134 500.732 528.134 530.044V553.578C528.134 633.08 616.786 740.008 658.232 778.2C659.214 779.106 660.196 779.836 661.256 780.472C661.334 780.568 661.41 780.568 661.506 780.568C671.522 786.75 685.118 783.246 690.492 772.17C726.238 698.966 830.412 478.504 830.412 393.068V369.54C830.41 316.538 812.48 279.002 783.59 261.648ZM593.288 539.908C592.71 537.712 592.21 535.44 591.804 533.09C590.648 526.946 590.11 520.302 590.11 513.214C590.11 450.428 634.194 374.008 688.64 342.614C694.764 339.108 700.792 336.258 706.61 334.14C711.656 332.31 716.548 330.982 721.286 330.172C759.69 323.586 787.154 349.894 787.154 399.468C787.154 462.254 743.07 538.694 688.642 570.086C642.708 596.628 604.19 582.722 593.288 539.908Z"
		fill="#37374F" />
	<path
		d="M286.192 178.16H244.23C225.252 178.16 209.87 162.776 209.87 143.798V134.096C209.87 113.02 226.956 95.9341 248.03 95.9341C269.106 95.9341 286.192 113.02 286.192 134.096V178.16Z"
		fill="#263238" />
	<path
		d="M215.93 115.104L207.082 110.354C208.338 107.818 211.336 106.826 213.78 108.138C216.224 109.45 217.186 112.568 215.93 115.104Z"
		fill="#263238" />
	<path
		d="M216.68 116.108L207.272 119.626C206.194 117.01 207.426 114.102 210.024 113.13C212.622 112.158 215.602 113.492 216.68 116.108Z"
		fill="#263238" />
	<path d="M300.124 226.864L311.678 248.044L295.618 261.81L279.558 236.918L300.124 226.864Z"
		fill="#9A4A4D" />
	<path
		d="M267.802 181.428C273.85 181.93 280.114 184.512 284.454 193.498C288.794 202.482 302.368 230.464 302.368 230.464C302.368 230.464 299.312 242.62 283.49 244.232L277.204 234.602L267.802 181.428Z"
		fill="#3B82F6" />
	<path opacity="0.1"
		d="M267.802 181.428C273.85 181.93 280.114 184.512 284.454 193.498C288.794 202.482 302.368 230.464 302.368 230.464C302.368 230.464 299.312 242.62 283.49 244.232L277.204 234.602L267.802 181.428Z"
		fill="black" />
	<path
		d="M161.016 472.192C158.004 470.642 156.092 474.466 153.36 477.534C151.446 479.686 148.46 483.092 148.016 485.542C147.362 489.17 150.632 494.882 154.254 498.032C157.876 501.182 162.08 503.436 163.396 510.34C164.712 517.244 167.394 521.348 174.55 524.434C182.39 527.816 192.894 526.734 196.456 524.434C200.676 521.708 196.822 518.716 190.908 510.252C183.19 499.21 177.18 491.32 177.18 481.018L161.016 472.192Z"
		fill="#263238" />
	<path
		d="M167.186 463.148L160.85 472.436C158.104 476.462 158.96 482.07 162.99 484.808C163.054 484.852 163.12 484.896 163.186 484.938C167.042 487.44 172.212 486.442 175.318 483.054L185.208 472.26L167.186 463.148Z"
		fill="#B16668" />
	<path
		d="M281.118 286.838C281.518 298.674 283.606 341.84 274.968 364.492C266.882 385.698 259.566 397.042 256.992 401.446C254.418 405.85 180.268 478.038 180.268 478.038C180.268 478.038 167.686 477.116 165.684 464.914C165.684 464.914 196.066 413.266 202.644 402.672C209.222 392.08 232.526 375.838 232.526 375.838L230.406 276.54L281.118 286.838Z"
		fill="#37474F" />
	<path d="M267.241 534.12L282.917 530.556L277.727 507.727L262.051 511.291L267.241 534.12Z"
		fill="#B16668" />
	<path
		d="M254.986 322.976C254.986 322.976 261.082 317.846 269.318 306.47C281.302 289.912 279.458 275.21 279.458 275.21H274.55L209.71 276.538C203.282 287.074 201.882 303.05 204.054 318.612C208.56 350.912 235.316 406.82 235.316 406.82C234.942 411.238 233.072 429.806 237.288 446.268C243.936 472.238 262.052 516.186 262.052 516.186C262.052 516.186 273.402 517.806 279.038 511.238C279.038 511.238 269.006 422.014 266.304 399.152C263.38 374.416 254.986 322.976 254.986 322.976Z"
		fill="#37474F" />
	<path
		d="M281.158 522.802L280.648 520.56C282.296 520.872 289.332 532.558 296.314 537.636C303.96 543.196 310.596 546.482 314.01 548.99C318.58 552.342 311.964 559.208 300.718 559.82C295.134 560.124 284.97 558.426 281.838 555.452C278.706 552.48 276.438 547.56 273.956 545.422C271.474 543.286 266.448 541.412 264.746 538.674C263.812 537.17 263.668 533.442 263.772 530.24C263.868 527.302 263.964 524.076 264.97 524.12C265.05 524.458 265.358 525.83 265.358 525.83C266.784 526.832 271.252 528.102 274.892 527.932C277.54 527.814 282.466 527.198 281.158 522.802Z"
		fill="#263238" />
	<path
		d="M264.324 384.01C264.324 384.01 256.768 330.326 254.986 322.976C254.986 322.976 268.308 317.902 272.402 313.25C272.402 313.25 269.478 319.758 259.95 325.542L264.324 384.01Z"
		fill="#263238" />
	<path
		d="M224.288 381.936C224.288 381.936 232.08 402.406 235.316 406.822C235.316 406.822 234.508 422.038 234.622 425.114L230.408 428.788C230.408 428.788 230.208 416.008 232.294 408.262C232.294 408.262 227.03 397.68 224.288 381.936Z"
		fill="#263238" />
	<path
		d="M277.482 238.788C278.496 248.18 281.118 286.838 281.118 286.838C250.098 303.39 211.628 292.424 205.738 285.6C211.072 268.046 218.768 260.628 223.156 255.956L213.106 227.916C213.106 227.916 211.906 225.048 211.932 225.024C212.542 223.978 227.552 210.464 220.156 189.09C219.008 185.774 221.356 182.272 224.854 181.986L233.76 181.258L257.914 180.55C263.69 180.874 267.804 181.43 267.804 181.43C271.506 184.892 277.338 194.408 281.12 204.088C283.556 210.328 286.192 220.298 277.482 238.788Z"
		fill="#3B82F6" />
	<path opacity="0.1"
		d="M219.59 238.038L223.114 224.33L227.49 255.98L218.634 260.908L223.156 255.956L218.572 243.172L219.59 238.038Z"
		fill="black" />
	<path
		d="M272.564 112.556C276.594 114.938 281.576 125.076 281.086 146.33C280.67 164.342 274.83 168.792 271.898 170.074C268.966 171.356 263.312 170.576 257.814 169.66V180.47C257.814 180.47 266 195.612 264.15 201.664C260.266 202.342 255.14 199.68 248.032 194.838C240.922 189.996 233.758 181.256 233.758 181.256L233.882 156.4C233.882 156.4 230.646 159.542 225.162 154.746C220.634 150.786 219.108 144.11 222.638 140.528C226.166 136.946 232.69 137.922 235.19 143.028C235.19 143.028 243.956 143.348 255.63 136.936C267.302 130.524 271.788 119.54 272.564 112.556Z"
		fill="#B16668" />
	<path
		d="M260.974 141.804C261.04 143.102 260.08 144.202 258.83 144.262C257.58 144.322 256.514 143.316 256.45 142.018C256.384 140.72 257.344 139.62 258.594 139.56C259.844 139.502 260.908 140.506 260.974 141.804Z"
		fill="#263238" />
	<g opacity="0.5">
		<path
			d="M261.578 157.074L266.838 158.752C266.402 160.258 264.87 161.102 263.416 160.64C261.964 160.176 261.142 158.58 261.578 157.074Z"
			fill="#9A4A4D" />
	</g>
	<path
		d="M279.546 134.848L274.964 131.672C275.8 130.362 277.504 130.014 278.77 130.892C280.034 131.768 280.382 133.542 279.546 134.848Z"
		fill="#263238" />
	<path
		d="M278.49 140.166C278.556 141.464 277.594 142.564 276.346 142.624C275.096 142.684 274.03 141.678 273.966 140.382C273.9 139.084 274.86 137.984 276.11 137.924C277.358 137.864 278.424 138.87 278.49 140.166Z"
		fill="#263238" />
	<g opacity="0.5">
		<path d="M267.802 138.87L268.164 152.506L275.34 150.282L267.802 138.87Z" fill="#9A4A4D" />
	</g>
	<g opacity="0.5">
		<path
			d="M257.814 169.662C252.022 168.902 240.104 165.478 238.248 160.766C238.248 160.766 238.866 163.728 242.426 166.778C245.986 169.828 257.816 173.268 257.816 173.268V169.662H257.814Z"
			fill="#9A4A4D" />
	</g>
	<path
		d="M186.568 272.846C186.708 270.898 190.356 250.108 192.868 238.48L217.31 245.97L213.388 262.26L193.052 281.922C186.602 280.642 186.43 274.794 186.568 272.846Z"
		fill="#B16668" />
	<path
		d="M224.852 181.984C215.474 182.806 203.114 184.2 197.234 210.892C191.722 235.91 190.358 244.66 190.358 244.66C190.358 244.66 197.582 253.81 216.254 252.8L223.116 224.33C235.612 207.888 231.59 196.098 224.852 181.984Z"
		fill="#3B82F6" />
	<path
		d="M303.884 253.48C307.242 247.23 308.074 246.956 310.068 245.586C312.064 244.216 324.312 242.386 329.394 241.958C335.374 241.454 337.496 242.554 335.834 247.694C332.276 258.698 321.486 282.066 319.07 285.29C317.486 287.404 317.16 289.368 310.44 290.024C304.158 290.636 296.284 290.98 293.966 291.12C291.646 291.26 288.44 291.836 290.518 285.016C292.596 278.194 297.5 267.118 299.698 262.352C302.282 256.74 303.884 253.48 303.884 253.48Z"
		fill="#263238" />
	<path
		d="M213.388 262.26C213.388 262.26 267.7 268.002 274.73 265.82C281.76 263.638 291.214 256.608 296.304 253.7C301.394 250.792 305.03 250.548 305.03 251.762C305.03 252.976 300.684 259.612 299.698 262.354C298.71 265.094 304.378 265.112 311.818 263.398C319.256 261.684 322.24 257.352 324.18 259.89C326.118 262.428 320.058 274.79 307.696 279.396C295.334 284.002 286.162 280.962 275.962 281.392C265.762 281.82 207.238 286.386 193.052 281.924C193.052 281.924 191.41 275.288 197.954 269.852C204.498 264.412 213.388 262.26 213.388 262.26Z"
		fill="#B16668" />
	<path
		d="M560.588 68.6619L575.476 60.0659C575.402 59.4859 575.35 58.8859 575.35 58.2399V53.9259C575.35 46.2499 580.738 36.9159 587.386 33.0779C590.078 31.5239 592.554 31.1259 594.56 31.6939C595.648 20.7859 603.222 8.44588 612.418 3.13588C622.364 -2.60612 630.426 2.04788 630.426 13.5319V19.9839C630.426 22.9579 629.876 26.0979 628.902 29.2199L641.27 22.0799C644.958 19.9519 647.946 21.6779 647.946 25.9339C647.946 30.1919 644.956 35.3679 641.27 37.4979L560.588 84.0799C556.9 86.2079 553.912 84.4839 553.912 80.2259C553.912 75.9679 556.902 70.7899 560.588 68.6619Z"
		fill="#F0F0F0" />
	<path
		d="M489.242 168.672L500.478 162.184C500.422 161.746 500.384 161.294 500.384 160.806V157.55C500.384 151.758 504.452 144.712 509.468 141.816C511.5 140.642 513.368 140.344 514.882 140.77C515.704 132.536 521.418 123.224 528.36 119.216C535.866 114.882 541.95 118.396 541.95 127.062V131.932C541.95 134.178 541.534 136.548 540.8 138.902L550.134 133.514C552.918 131.908 555.172 133.21 555.172 136.422C555.172 139.636 552.916 143.542 550.134 145.15L489.244 180.306C486.462 181.912 484.206 180.61 484.206 177.398C484.204 174.186 486.46 170.28 489.242 168.672Z"
		fill="#F0F0F0" />
</svg>