<svg width="2782" height="751" viewBox="0 0 2782 751" fill="none" xmlns="http://www.w3.org/2000/svg">
    <path
        d="M395.5 665V315H462.5L669 567H636.5V315H716.5V665H650L443 413H475.5V665H395.5ZM927.309 669C896.642 669 869.642 663 846.309 651C823.309 639 805.475 622.667 792.809 602C780.142 581 773.809 557.167 773.809 530.5C773.809 503.5 779.975 479.667 792.309 459C804.975 438 822.142 421.667 843.809 410C865.475 398 889.975 392 917.309 392C943.642 392 967.309 397.667 988.309 409C1009.64 420 1026.48 436 1038.81 457C1051.14 477.667 1057.31 502.5 1057.31 531.5C1057.31 534.5 1057.14 538 1056.81 542C1056.48 545.667 1056.14 549.167 1055.81 552.5H837.309V507H1014.81L984.809 520.5C984.809 506.5 981.975 494.333 976.309 484C970.642 473.667 962.809 465.667 952.809 460C942.809 454 931.142 451 917.809 451C904.475 451 892.642 454 882.309 460C872.309 465.667 864.475 473.833 858.809 484.5C853.142 494.833 850.309 507.167 850.309 521.5V533.5C850.309 548.167 853.475 561.167 859.809 572.5C866.475 583.5 875.642 592 887.309 598C899.309 603.667 913.309 606.5 929.309 606.5C943.642 606.5 956.142 604.333 966.809 600C977.809 595.667 987.809 589.167 996.809 580.5L1038.31 625.5C1025.98 639.5 1010.48 650.333 991.809 658C973.142 665.333 951.642 669 927.309 669ZM1266.91 665V612.5L1261.91 601V507C1261.91 490.333 1256.75 477.333 1246.41 468C1236.41 458.667 1220.91 454 1199.91 454C1185.58 454 1171.41 456.333 1157.41 461C1143.75 465.333 1132.08 471.333 1122.41 479L1094.41 424.5C1109.08 414.167 1126.75 406.167 1147.41 400.5C1168.08 394.833 1189.08 392 1210.41 392C1251.41 392 1283.25 401.667 1305.91 421C1328.58 440.333 1339.91 470.5 1339.91 511.5V665H1266.91ZM1184.91 669C1163.91 669 1145.91 665.5 1130.91 658.5C1115.91 651.167 1104.41 641.333 1096.41 629C1088.41 616.667 1084.41 602.833 1084.41 587.5C1084.41 571.5 1088.25 557.5 1095.91 545.5C1103.91 533.5 1116.41 524.167 1133.41 517.5C1150.41 510.5 1172.58 507 1199.91 507H1271.41V552.5H1208.41C1190.08 552.5 1177.41 555.5 1170.41 561.5C1163.75 567.5 1160.41 575 1160.41 584C1160.41 594 1164.25 602 1171.91 608C1179.91 613.667 1190.75 616.5 1204.41 616.5C1217.41 616.5 1229.08 613.5 1239.41 607.5C1249.75 601.167 1257.25 592 1261.91 580L1273.91 616C1268.25 633.333 1257.91 646.5 1242.91 655.5C1227.91 664.5 1208.58 669 1184.91 669ZM1410.51 665V396H1485.01V472L1474.51 450C1482.51 431 1495.34 416.667 1513.01 407C1530.67 397 1552.17 392 1577.51 392V464C1574.17 463.667 1571.17 463.5 1568.51 463.5C1565.84 463.167 1563.01 463 1560.01 463C1538.67 463 1521.34 469.167 1508.01 481.5C1495.01 493.5 1488.51 512.333 1488.51 538V665H1410.51ZM1628.41 665V315H1695.41L1901.91 567H1869.41V315H1949.41V665H1882.91L1675.91 413H1708.41V665H1628.41ZM2160.22 669C2129.55 669 2102.55 663 2079.22 651C2056.22 639 2038.39 622.667 2025.72 602C2013.05 581 2006.72 557.167 2006.72 530.5C2006.72 503.5 2012.89 479.667 2025.22 459C2037.89 438 2055.05 421.667 2076.72 410C2098.39 398 2122.89 392 2150.22 392C2176.55 392 2200.22 397.667 2221.22 409C2242.55 420 2259.39 436 2271.72 457C2284.05 477.667 2290.22 502.5 2290.22 531.5C2290.22 534.5 2290.05 538 2289.72 542C2289.39 545.667 2289.05 549.167 2288.72 552.5H2070.22V507H2247.72L2217.72 520.5C2217.72 506.5 2214.89 494.333 2209.22 484C2203.55 473.667 2195.72 465.667 2185.72 460C2175.72 454 2164.05 451 2150.72 451C2137.39 451 2125.55 454 2115.22 460C2105.22 465.667 2097.39 473.833 2091.72 484.5C2086.05 494.833 2083.22 507.167 2083.22 521.5V533.5C2083.22 548.167 2086.39 561.167 2092.72 572.5C2099.39 583.5 2108.55 592 2120.22 598C2132.22 603.667 2146.22 606.5 2162.22 606.5C2176.55 606.5 2189.05 604.333 2199.72 600C2210.72 595.667 2220.72 589.167 2229.72 580.5L2271.22 625.5C2258.89 639.5 2243.39 650.333 2224.72 658C2206.05 665.333 2184.55 669 2160.22 669ZM2432.65 669C2409.65 669 2387.48 666.333 2366.15 661C2345.15 655.333 2328.48 648.333 2316.15 640L2342.15 584C2354.48 591.667 2368.98 598 2385.65 603C2402.65 607.667 2419.32 610 2435.65 610C2453.65 610 2466.32 607.833 2473.65 603.5C2481.32 599.167 2485.15 593.167 2485.15 585.5C2485.15 579.167 2482.15 574.5 2476.15 571.5C2470.48 568.167 2462.82 565.667 2453.15 564C2443.48 562.333 2432.82 560.667 2421.15 559C2409.82 557.333 2398.32 555.167 2386.65 552.5C2374.98 549.5 2364.32 545.167 2354.65 539.5C2344.98 533.833 2337.15 526.167 2331.15 516.5C2325.48 506.833 2322.65 494.333 2322.65 479C2322.65 462 2327.48 447 2337.15 434C2347.15 421 2361.48 410.833 2380.15 403.5C2398.82 395.833 2421.15 392 2447.15 392C2465.48 392 2484.15 394 2503.15 398C2522.15 402 2537.98 407.833 2550.65 415.5L2524.65 471C2511.65 463.333 2498.48 458.167 2485.15 455.5C2472.15 452.5 2459.48 451 2447.15 451C2429.82 451 2417.15 453.333 2409.15 458C2401.15 462.667 2397.15 468.667 2397.15 476C2397.15 482.667 2399.98 487.667 2405.65 491C2411.65 494.333 2419.48 497 2429.15 499C2438.82 501 2449.32 502.833 2460.65 504.5C2472.32 505.833 2483.98 508 2495.65 511C2507.32 514 2517.82 518.333 2527.15 524C2536.82 529.333 2544.65 536.833 2550.65 546.5C2556.65 555.833 2559.65 568.167 2559.65 583.5C2559.65 600.167 2554.65 615 2544.65 628C2534.65 640.667 2520.15 650.667 2501.15 658C2482.48 665.333 2459.65 669 2432.65 669ZM2717.77 669C2686.11 669 2661.44 661 2643.77 645C2626.11 628.667 2617.27 604.5 2617.27 572.5V336.5H2695.27V571.5C2695.27 582.833 2698.27 591.667 2704.27 598C2710.27 604 2718.44 607 2728.77 607C2741.11 607 2751.61 603.667 2760.27 597L2781.27 652C2773.27 657.667 2763.61 662 2752.27 665C2741.27 667.667 2729.77 669 2717.77 669ZM2575.77 462V402H2762.27V462H2575.77Z"
        fill="url(#paint0_linear_0_1)" />
    <path
        d="M205.687 345.875L147.75 336.375C147.75 336.375 144.937 579.812 147.375 608.688C147.375 608.75 162.312 696.688 166 740.375C166.437 745.812 171 750.062 176.5 750.062C182 750.062 186.562 745.875 187.062 740.375L205.75 608.688C205.625 569 205.687 345.875 205.687 345.875Z"
        fill="#82AEC0" />
    <path
        d="M205.437 348.562C205.437 348.562 205.687 385.437 205.687 394.625C205.687 403.812 197.5 418.563 176.312 418.563C155.125 418.563 147.312 404.125 147.312 395.25C147.312 386.375 147.375 348.688 147.375 348.688L205.437 348.562Z"
        fill="#2F7889" />
    <path
        d="M0 177.25V186.125C5.3125 273.875 74.4375 345.625 162.187 353.562C167.5 354.437 171.938 354.437 177.25 354.437C182.563 354.437 187 354.437 191.437 353.562C279.188 345.562 348.25 275.563 353.563 186.063V177.187C354.438 79.75 274.688 0 177.188 0C79.6875 0 0 78.875 0 177.25Z"
        fill="#3B82F6" />
    <path
        d="M195.312 29.8123C211.937 46.1873 207.625 65.1873 198.562 81.6248C188.375 100.125 164.687 109.437 129.75 159.812C103.562 197.562 47.9999 180.312 40.1874 150.375C34.1874 127.375 38.9999 103.312 51.4374 83.4373C98.6249 7.9373 178.687 13.4373 195.312 29.8123Z"
        fill="#6EA4FE" />
    <defs>
        <linearGradient id="paint0_linear_0_1" x1="354" y1="476.367" x2="2789.99" y2="496.983"
            gradientUnits="userSpaceOnUse">
            <stop stop-color="#3B82F6" />
            <stop offset="1" stop-color="#8CB8FF" />
        </linearGradient>
    </defs>
</svg>